<?xml version="1.0" encoding="UTF-8" standalone="no"?>
<svg
   xml:space="preserve"
   id="svg4768"
   viewBox="0.171 0.201 512 512"
   height="48"
   width="48"
   version="1.0"
   sodipodi:docname="LogoVoyager.svg"
   inkscape:version="1.1.2 (0a00cf5339, 2022-02-04)"
   xmlns:inkscape="http://www.inkscape.org/namespaces/inkscape"
   xmlns:sodipodi="http://sodipodi.sourceforge.net/DTD/sodipodi-0.dtd"
   xmlns:xlink="http://www.w3.org/1999/xlink"
   xmlns="http://www.w3.org/2000/svg"
   xmlns:svg="http://www.w3.org/2000/svg"
   xmlns:rdf="http://www.w3.org/1999/02/22-rdf-syntax-ns#"
   xmlns:cc="http://creativecommons.org/ns#"
   xmlns:dc="http://purl.org/dc/elements/1.1/"><sodipodi:namedview
     id="namedview88"
     pagecolor="#ffffff"
     bordercolor="#666666"
     borderopacity="1.0"
     inkscape:showpageshadow="2"
     inkscape:pageopacity="0.0"
     inkscape:pagecheckerboard="0"
     inkscape:deskcolor="#d1d1d1"
     showgrid="false"
     inkscape:zoom="7.4157415"
     inkscape:cx="11.934073"
     inkscape:cy="18.002246"
     inkscape:window-width="1500"
     inkscape:window-height="936"
     inkscape:window-x="0"
     inkscape:window-y="0"
     inkscape:window-maximized="1"
     inkscape:current-layer="svg4768"
     inkscape:pageshadow="2" /><metadata
     id="metadata70"><rdf:RDF><cc:Work
         rdf:about=""><dc:format>image/svg+xml</dc:format><dc:type
           rdf:resource="http://purl.org/dc/dcmitype/StillImage" /></cc:Work></rdf:RDF></metadata><!-- Gnu Emacs Icon
   Copyright (C) 2008-2017 Free Software Foundation, Inc.

   Author: Nicolas Petton <nicolas@petton.fr>

   This file is part of GNU Emacs.

   GNU Emacs is free software: you can redistribute it and/or modify
   it under the terms of the GNU General Public License as published by
   the Free Software Foundation; either version 3 of the License, or
   (at your option) any later version.

   GNU Emacs is distributed in the hope that it will be useful,
   but WITHOUT ANY WARRANTY; without even the implied warranty of
   MERCHANTABILITY or FITNESS FOR A PARTICULAR PURPOSE.  See the
   GNU General Public License for more details.

   You should have received a copy of the GNU General Public License
   along with GNU Emacs.  If not, see <http://www.gnu.org/licenses/>.

--><!-- Created with Inkscape (http://www.inkscape.org/) --><defs
     id="defs4770"><linearGradient
       id="linearGradient4292"><stop
         id="stop4294"
         offset="0"
         style="stop-color:#411f5d;stop-opacity:1" /><stop
         id="stop4296"
         offset="1"
         style="stop-color:#5b2a85;stop-opacity:1" /></linearGradient><linearGradient
       id="linearGradient4284"><stop
         offset="0"
         style="stop-color:#8381c5;stop-opacity:1"
         id="stop4286" /><stop
         id="stop4290"
         style="stop-color:#7e55b3;stop-opacity:0.99607843"
         offset="0.56639391" /><stop
         offset="1"
         style="stop-color:#a52ecb;stop-opacity:0.99215686"
         id="stop4288" /></linearGradient><linearGradient
       id="linearGradient4898"><stop
         id="stop4278"
         style="stop-color:#bab8db;stop-opacity:1"
         offset="0" /><stop
         id="stop4280"
         style="stop-color:#5955a9;stop-opacity:0.99159664"
         offset="1" /></linearGradient><linearGradient
       id="linearGradient3294"><stop
         offset="0"
         style="stop-color:#6376e6;stop-opacity:1"
         id="stop3296" /><stop
         offset="0.50094414"
         style="stop-color:#222989;stop-opacity:1"
         id="stop3302" /><stop
         offset="1"
         style="stop-color:#00003d;stop-opacity:1"
         id="stop3298" /></linearGradient><linearGradient
       id="linearGradient3284"><stop
         offset="0"
         style="stop-color:#000000;stop-opacity:1"
         id="stop3286" /><stop
         offset="0.84845906"
         style="stop-color:#000000;stop-opacity:0.49803922"
         id="stop3292" /><stop
         offset="1"
         style="stop-color:#000000;stop-opacity:0"
         id="stop3288" /></linearGradient><linearGradient
       id="linearGradient3274"><stop
         offset="0"
         style="stop-color:#000000;stop-opacity:1"
         id="stop3276" /><stop
         offset="1"
         style="stop-color:#000000;stop-opacity:0"
         id="stop3278" /></linearGradient><linearGradient
       id="linearGradient3262"><stop
         offset="0"
         style="stop-color:#000000;stop-opacity:1"
         id="stop3264" /><stop
         offset="1"
         style="stop-color:#000000;stop-opacity:0"
         id="stop3266" /></linearGradient><linearGradient
       id="linearGradient3242"><stop
         offset="0"
         style="stop-color:#282828;stop-opacity:1"
         id="stop3244" /><stop
         offset="0.39253417"
         style="stop-color:#808080;stop-opacity:1"
         id="stop3252" /><stop
         offset="1"
         style="stop-color:#d9d9d9;stop-opacity:1"
         id="stop3246" /></linearGradient><linearGradient
       id="linearGradient3202"><stop
         offset="0"
         style="stop-color:#2b2b2b;stop-opacity:1"
         id="stop3204" /><stop
         offset="0.5"
         style="stop-color:#828383;stop-opacity:1"
         id="stop3250" /><stop
         offset="1"
         style="stop-color:#dadbdb;stop-opacity:1"
         id="stop3206" /></linearGradient><linearGradient
       id="linearGradient4966"><stop
         offset="0"
         style="stop-color:#b6b3d8;stop-opacity:1"
         id="stop4968" /><stop
         offset="1"
         style="stop-color:#b6b3d8;stop-opacity:0"
         id="stop4970" /></linearGradient><linearGradient
       id="linearGradient4938"><stop
         offset="0"
         style="stop-color:#000000;stop-opacity:1"
         id="stop4940" /><stop
         offset="1"
         style="stop-color:#000000;stop-opacity:0"
         id="stop4942" /></linearGradient><linearGradient
       id="linearGradient4282"><stop
         offset="0"
         style="stop-color:#bab8db;stop-opacity:1"
         id="stop4900" /><stop
         offset="1"
         style="stop-color:#5955a9;stop-opacity:0.99159664"
         id="stop4902" /></linearGradient><linearGradient
       id="linearGradient4876"><stop
         offset="0"
         style="stop-color:#d3d2e8;stop-opacity:1"
         id="stop4878" /><stop
         offset="1"
         style="stop-color:#5955a9;stop-opacity:0.99159664"
         id="stop4880" /></linearGradient><radialGradient
       gradientTransform="matrix(0.6817439,0,0,0.5905355,-3.8523706,-28.935273)"
       gradientUnits="userSpaceOnUse"
       xlink:href="#linearGradient4898"
       id="radialGradient4892"
       fy="-108.96888"
       fx="20.951529"
       r="266.76535"
       cy="-108.96888"
       cx="20.951529" /><radialGradient
       gradientTransform="matrix(1,0,0,0.1854103,0,383.88493)"
       gradientUnits="userSpaceOnUse"
       xlink:href="#linearGradient4938"
       id="radialGradient4944"
       fy="471.26172"
       fx="233.8876"
       r="170.49393"
       cy="471.26172"
       cx="233.8876" /><radialGradient
       gradientTransform="matrix(1,0,0,0.9121621,0,32.654948)"
       gradientUnits="userSpaceOnUse"
       xlink:href="#linearGradient4966"
       id="radialGradient4972"
       fy="371.76376"
       fx="299.70135"
       r="76.696358"
       cy="371.76376"
       cx="299.70135" /><radialGradient
       gradientTransform="matrix(0.414705,0.3300575,-0.5059004,0.6356454,346.95314,49.479585)"
       gradientUnits="userSpaceOnUse"
       xlink:href="#linearGradient3202"
       id="radialGradient3210"
       fy="390.45248"
       fx="289.44067"
       r="17.67668"
       cy="390.45248"
       cx="289.44067" /><radialGradient
       gradientTransform="matrix(0.414705,0.3300575,-0.5059004,0.6356454,448.41009,-65.398074)"
       gradientUnits="userSpaceOnUse"
       xlink:href="#linearGradient3202"
       id="radialGradient3238"
       fy="382.14804"
       fx="283.50717"
       r="17.67668"
       cy="382.14804"
       cx="283.50717" /><radialGradient
       gradientTransform="matrix(-6.5565014e-2,-5.9721765e-2,1.6871024,-1.8521705,171.90774,540.51473)"
       gradientUnits="userSpaceOnUse"
       xlink:href="#linearGradient3242"
       id="radialGradient3248"
       fy="181.18982"
       fx="418.45551"
       r="63.068935"
       cy="181.18982"
       cx="418.45551" /><radialGradient
       gradientTransform="matrix(0.4055116,-3.3440123e-2,0.1034174,4.3988695,177.23251,-1191.6649)"
       gradientUnits="userSpaceOnUse"
       xlink:href="#linearGradient3262"
       id="radialGradient3268"
       fy="357.33591"
       fx="354.51709"
       r="33.712105"
       cy="357.33591"
       cx="354.51709" /><radialGradient
       gradientTransform="matrix(-0.1339874,-0.1146812,0.3079048,-0.3597394,444.23592,395.03849)"
       gradientUnits="userSpaceOnUse"
       xlink:href="#linearGradient3274"
       id="radialGradient3280"
       fy="223.55537"
       fx="510.58469"
       r="132.28336"
       cy="223.55537"
       cx="510.58469" /><radialGradient
       gradientTransform="matrix(-1.2497569,1.3798305,-9.6289463e-2,-7.2974479e-2,674.3826,-70.590682)"
       gradientUnits="userSpaceOnUse"
       xlink:href="#linearGradient3284"
       id="radialGradient3290"
       fy="-158.17821"
       fx="284.4671"
       r="110.2972"
       cy="-158.17821"
       cx="284.4671" /><radialGradient
       gradientTransform="matrix(-0.1008165,-8.0872321e-2,1.0745309,-1.3395252,13.843287,784.79288)"
       gradientUnits="userSpaceOnUse"
       xlink:href="#linearGradient3294"
       id="radialGradient3300"
       fy="356.62274"
       fx="425.51019"
       r="143.34167"
       cy="356.62274"
       cx="425.51019" /><filter
       height="1.1062305"
       y="-0.053115237"
       width="1.1073157"
       x="-0.053657868"
       id="filter4350"
       style="color-interpolation-filters:sRGB"><feGaussianBlur
         id="feGaussianBlur4352"
         stdDeviation="8.7848425" /></filter><linearGradient
       y2="300.73987"
       x2="236.61363"
       y1="-161.8512"
       x1="-122.20192"
       spreadMethod="pad"
       gradientTransform="matrix(0.87385837,0,0,0.82818057,246.00762,250.28138)"
       gradientUnits="userSpaceOnUse"
       id="linearGradient4245"
       xlink:href="#linearGradient4284" /><linearGradient
       y2="66.018341"
       x2="173.94518"
       y1="396.6066"
       x1="447.80933"
       gradientTransform="matrix(0.98684959,0,0,0.98684959,3.0344187,2.5250397)"
       gradientUnits="userSpaceOnUse"
       id="linearGradient4247"
       xlink:href="#linearGradient4292" /></defs><rect
     style="fill:none;display:none"
     id="rect4772"
     y="0.20100001"
     x="0.171"
     height="512"
     width="512" /><g
     style="display:none"
     id="g4788"><g
       style="display:inline"
       id="g4790" /></g><g
     style="display:none"
     id="g4806"><g
       style="display:inline"
       id="g4808"><path
         style="fill:#050505;display:none"
         id="path4810"
         d="M 349.098,256.651 C 348.833,256.397 386.735,284.256 388.519,281.663 C 394.881,272.411 470.565,188.526 473.303,165.427 C 473.545,163.424 472.787,161.331 472.787,161.331 C 472.787,161.331 471.597,161.187 466.462,157.017 C 463.77,154.825 460.979,152.436 460.979,152.436 C 444.925,153.434 403.094,193.995 349.917,256.004" /></g></g><path
     style="opacity:0.40500004;fill:#211f46;fill-opacity:0.99607843;stroke:#0a0b1b;stroke-width:8.53333378;stroke-miterlimit:4;stroke-dasharray:none;stroke-opacity:1;filter:url(#filter4350)"
     id="path4233"
     d="m 491.66937,257.75916 c 0,131.79436 -105.76,238.63481 -236.22155,238.63481 -130.46155,0 -236.221539,-106.84045 -236.221539,-238.63481 0,-131.79437 105.759989,-238.634808 236.221539,-238.634808 130.46155,0 236.22155,106.840438 236.22155,238.634808 z"
     transform="matrix(0.98684957,0,0,0.98684957,3.0344041,2.5250397)" /><path
     d="m 488.23812,256.89456 c 0,130.06121 -104.3692,235.49665 -233.1151,235.49665 -128.7459,0 -233.115201,-105.43544 -233.115201,-235.49665 0,-130.06123 104.369301,-235.49666 233.115201,-235.49666 128.7459,0 233.1151,105.43543 233.1151,235.49666 z"
     id="path4235"
     style="opacity:1;fill:url(#linearGradient4245);fill-opacity:1;stroke:url(#linearGradient4247);stroke-width:13.33816814;stroke-miterlimit:4;stroke-dasharray:none;stroke-opacity:1" /><text
     xml:space="preserve"
     style="font-style:normal;font-weight:normal;font-size:426.667px;line-height:1.25;font-family:sans-serif;fill:#000000;fill-opacity:1;stroke:none;stroke-width:10.6667"
     x="119.5118"
     y="342.16714"
     id="text5325"><tspan
       sodipodi:role="line"
       style="font-style:normal;font-variant:normal;font-weight:normal;font-stretch:normal;font-family:'Linux Libertine Mono O';-inkscape-font-specification:'Linux Libertine Mono O';stroke-width:10.6667"
       x="119.5118"
       y="342.16714"
       id="tspan5327" /></text><text
     xml:space="preserve"
     style="font-style:normal;font-variant:normal;font-weight:normal;font-stretch:normal;font-size:402.188px;line-height:1.25;font-family:Amiri;-inkscape-font-specification:Amiri;fill:#5b2a85;fill-opacity:1;stroke:none;stroke-width:10.0547"
     x="158.37978"
     y="335.2298"
     id="text4772"
     transform="scale(1.03008,0.9707984)"><tspan
       sodipodi:role="line"
       id="tspan4770"
       style="font-style:normal;font-variant:normal;font-weight:normal;font-stretch:normal;font-family:Amiri;-inkscape-font-specification:Amiri;fill:#5b2a85;fill-opacity:1;stroke-width:10.0547"
       x="158.37978"
       y="335.2298" /></text><text
     xml:space="preserve"
     style="font-style:normal;font-variant:normal;font-weight:normal;font-stretch:normal;font-size:402.188px;line-height:1.25;font-family:Amiri;-inkscape-font-specification:Amiri;fill:#5b2a85;fill-opacity:1;stroke:none;stroke-width:10.0547"
     x="235.1881"
     y="344.67892"
     id="text4772-4"
     transform="scale(1.03008,0.9707984)"><tspan
       sodipodi:role="line"
       id="tspan4770-9"
       style="font-style:normal;font-variant:normal;font-weight:normal;font-stretch:normal;font-family:Amiri;-inkscape-font-specification:Amiri;fill:#5b2a85;fill-opacity:1;stroke-width:10.0547"
       x="235.1881"
       y="344.67892" /></text><g
     transform="matrix(0.03249071,0,0,-0.03312178,47.258415,462.90977)"
     fill="#000000"
     stroke="none"
     id="g5480"
     style="fill:#ffffff;fill-opacity:1"><path
       d="m 5190,12527 c -140,-66 -334,-173 -687,-382 l -492,-290 -172,-170 -172,-169 18,-96 c 10,-52 20,-100 24,-106 4,-7 131,66 328,186 l 323,197 187,13 188,13 105,52 c 103,51 110,53 365,99 143,25 266,46 273,46 8,0 73,46 145,103 73,57 226,170 340,251 l 209,147 119,32 c 65,18 119,34 119,37 0,3 -36,27 -79,53 l -79,47 -239,15 c -131,8 -326,15 -433,14 h -195 z"
       id="path5464"
       style="fill:#ffffff;fill-opacity:1" /><path
       d="m 4545,12424 c -476,-129 -1025,-380 -1505,-686 -683,-436 -1313,-1031 -1814,-1713 -65,-89 -72,-94 125,88 64,59 119,107 121,107 3,0 14,-29 24,-65 10,-36 21,-64 24,-63 3,2 79,52 169,113 l 163,110 -38,32 c -20,18 -35,34 -33,36 2,1 63,59 134,129 l 130,126 105,-6 104,-7 -154,-123 c -85,-68 -156,-128 -158,-132 -2,-5 24,-63 58,-130 l 62,-120 27,37 c 15,21 66,97 114,169 82,123 87,133 87,185 l 1,54 177,186 177,185 60,158 60,157 210,174 c 208,172 212,175 455,306 261,141 1243,719 1219,718 -8,0 -54,-11 -104,-25 z"
       id="path5466"
       style="fill:#ffffff;fill-opacity:1" /><path
       d="m 8911,12184 c 93,-112 97,-118 104,-179 4,-33 9,-67 11,-75 3,-11 -20,-30 -70,-60 -69,-41 -75,-47 -82,-84 -3,-23 -8,-44 -10,-48 -3,-4 -39,9 -82,29 -42,19 -88,39 -101,44 l -24,10 18,-28 c 10,-16 33,-50 51,-78 18,-27 35,-70 39,-95 3,-25 9,-52 11,-62 3,-11 -14,-31 -55,-62 -33,-25 -62,-46 -66,-46 -9,0 -175,132 -175,139 0,3 47,5 105,3 117,-4 115,-5 95,68 -9,35 -15,38 -139,88 -113,46 -146,54 -274,71 -122,17 -154,25 -199,50 -41,23 -84,35 -186,52 l -134,22 -136,-66 c -76,-37 -157,-72 -181,-78 l -44,-10 6,-60 c 5,-60 5,-61 -61,-171 -46,-78 -102,-150 -185,-242 -66,-72 -127,-134 -136,-138 -9,-4 -41,-7 -71,-7 l -56,-1 7,-87 c 6,-75 15,-105 57,-202 28,-63 56,-117 64,-121 7,-4 37,-10 65,-14 52,-7 54,-6 120,45 l 68,51 69,-6 c 38,-4 72,-9 77,-11 13,-9 105,-174 147,-265 32,-69 47,-91 81,-113 l 41,-28 99,81 98,81 -18,90 -19,91 60,83 59,84 -87,62 -88,62 -23,81 c -13,45 -25,88 -28,98 -3,11 17,31 72,68 l 78,52 -6,85 -5,86 52,-7 c 28,-3 68,-6 89,-6 32,0 39,-4 48,-27 10,-25 6,-38 -35,-114 -60,-114 -60,-141 -1,-259 25,-50 51,-90 58,-90 36,0 85,-22 90,-40 9,-35 72,-26 212,32 l 127,51 65,-32 66,-32 -23,-25 c -22,-23 -30,-24 -131,-24 h -108 l -27,-35 -26,-35 41,-74 c 23,-41 41,-78 41,-81 0,-5 -13,-4 -118,10 l -44,6 7,-173 7,-173 -234,-68 -234,-68 -57,22 c -54,21 -59,21 -118,6 l -62,-16 -59,40 c -32,22 -58,41 -58,42 0,1 -14,79 -30,172 -16,94 -30,172 -30,174 0,3 -116,-98 -183,-159 -17,-16 -15,-22 38,-144 30,-69 55,-131 55,-135 0,-5 -80,-24 -177,-43 l -177,-33 -7,-35 c -4,-19 -10,-52 -13,-72 -6,-35 -14,-41 -146,-118 -129,-77 -144,-89 -230,-186 l -91,-104 h -70 c -67,0 -71,-1 -113,-40 l -44,-41 -144,7 -143,7 3,-60 4,-60 111,-44 112,-44 -3,-35 c -2,-30 6,-44 51,-94 l 54,-60 -35,-200 c -18,-111 -35,-202 -37,-204 -3,-3 -322,40 -616,83 -96,13 -98,13 -187,-13 -50,-15 -93,-30 -96,-32 -2,-3 0,-77 6,-165 l 9,-160 -66,-154 -65,-154 18,-161 17,-161 70,3 70,3 85,-99 c 93,-110 126,-128 164,-93 13,11 123,47 279,91 l 258,73 97,74 c 53,41 100,82 103,91 3,9 11,69 18,132 12,111 15,118 55,174 40,55 45,59 146,97 58,21 125,46 149,55 l 44,17 -6,108 -7,109 63,40 c 34,22 68,40 76,40 7,0 64,-16 127,-36 l 114,-35 146,94 146,94 75,-28 c 88,-32 82,-28 265,-226 132,-143 144,-154 207,-178 36,-14 129,-67 205,-118 l 139,-92 53,-92 53,-93 -76,-51 c -76,-52 -76,-52 -182,-60 -58,-4 -124,-8 -147,-8 -38,-1 -41,-3 -52,-38 -6,-20 -10,-38 -8,-40 1,-2 81,-32 177,-67 96,-36 181,-67 190,-71 14,-5 15,5 11,95 l -5,100 h 44 44 l 58,110 59,110 -41,46 c -46,52 -48,64 -23,112 l 18,32 39,-29 c 22,-15 57,-31 78,-35 42,-8 42,-8 17,59 -5,13 -57,47 -135,89 -105,56 -129,74 -140,100 -13,31 -17,33 -99,45 l -86,13 -69,82 c -38,45 -100,109 -138,143 -59,53 -73,71 -104,146 l -36,85 48,21 49,20 15,-35 c 14,-33 16,-34 70,-34 56,0 57,-1 110,-59 46,-49 101,-86 330,-221 l 275,-162 v -88 c 0,-86 1,-89 47,-170 42,-74 54,-87 124,-133 l 77,-52 70,-141 c 79,-159 58,-143 211,-160 l 64,-7 -6,81 -6,81 45,57 44,58 -57,33 c -32,18 -61,34 -64,35 -9,4 -110,208 -103,208 3,0 17,-9 31,-20 14,-11 37,-20 51,-20 25,0 25,0 18,71 l -7,71 53,-6 c 29,-3 85,-8 124,-12 l 72,-6 93,-204 94,-204 127,-76 c 81,-48 148,-81 185,-89 75,-18 73,-19 73,9 0,13 3,38 6,55 l 7,32 66,-6 c 56,-6 92,-1 239,34 95,23 178,41 185,41 7,0 26,-42 44,-97 31,-95 32,-107 43,-373 11,-268 11,-277 -9,-323 -11,-26 -24,-47 -28,-48 -4,0 -72,-6 -149,-13 l -141,-12 -91,-72 -90,-72 -321,39 -322,39 -57,38 c -46,32 -72,41 -135,51 l -77,11 -100,-66 c -88,-59 -99,-70 -95,-92 2,-14 5,-65 7,-114 l 3,-90 -60,-24 -60,-24 -110,21 c -60,11 -136,23 -168,27 -57,5 -62,9 -155,92 -54,48 -107,95 -119,105 -16,14 -66,24 -211,42 -187,23 -191,24 -305,77 -114,52 -116,53 -128,96 -12,42 -12,43 45,127 l 56,85 -46,69 -45,69 25,51 c 14,27 26,54 26,58 0,18 -117,71 -173,78 -52,6 -60,4 -88,-19 -30,-26 -33,-26 -199,-26 -158,0 -173,-2 -225,-24 l -55,-25 -106,29 -106,28 -271,-95 c -150,-52 -333,-116 -407,-143 l -135,-48 -50,28 c -43,24 -68,30 -185,40 -142,12 -154,17 -167,68 -4,19 -12,22 -58,22 h -53 l -7,-42 c -4,-24 -11,-50 -15,-58 -5,-8 -141,-143 -303,-299 l -295,-284 -7,-97 -6,-97 -138,-137 -138,-138 -119,-29 c -68,-17 -125,-36 -135,-46 -9,-10 -126,-164 -261,-343 -214,-284 -256,-345 -331,-489 -48,-90 -87,-165 -87,-168 0,-2 18,-30 40,-62 l 39,-59 -40,-323 -41,-324 -67,-80 c -37,-44 -70,-85 -74,-92 -4,-6 12,-58 36,-115 l 43,-103 -13,-88 -13,-88 229,-250 228,-250 53,-149 c 29,-82 56,-153 59,-158 3,-5 175,-134 381,-288 301,-224 381,-279 405,-278 17,0 77,13 135,29 l 105,29 305,-48 c 168,-27 314,-48 325,-48 11,0 144,38 295,85 l 275,85 251,7 251,7 74,-136 c 57,-105 79,-136 94,-136 11,0 110,11 219,24 l 199,23 111,-90 c 61,-49 112,-91 114,-92 2,-2 -26,-61 -61,-131 -35,-71 -83,-184 -107,-251 l -42,-121 47,-86 47,-87 158,-110 c 87,-60 162,-115 168,-122 5,-6 37,-81 70,-165 l 60,-153 -29,-34 -29,-33 45,-84 45,-85 -191,-197 -191,-197 10,-78 c 9,-77 11,-81 85,-179 l 76,-100 7,-81 7,-81 69,-38 69,-39 107,24 c 252,55 611,172 872,286 272,118 622,308 865,470 181,121 326,230 315,237 -6,4 -10,26 -8,51 l 3,43 369,293 c 203,161 373,298 377,306 5,7 75,207 157,443 l 150,429 412,659 413,660 154,403 153,404 -2,201 -3,202 -168,-207 c -92,-113 -172,-209 -178,-212 -5,-4 -36,-4 -68,0 l -59,7 -12,81 c -14,96 -24,113 -108,201 l -63,65 -71,3 -71,3 -32,111 c -30,107 -34,114 -122,226 l -90,115 -17,134 c -10,74 -22,146 -26,161 -5,15 -47,73 -94,130 -73,87 -112,150 -255,413 l -170,310 69,35 c 38,18 71,32 73,30 2,-3 78,-104 169,-225 101,-135 195,-249 244,-295 l 79,-75 39,-150 39,-150 165,-200 c 91,-110 171,-207 178,-216 8,-9 27,-107 44,-235 41,-296 36,-276 73,-272 30,3 43,23 262,383 l 231,380 97,285 96,285 11,320 c 5,176 10,334 10,352 0,29 -8,38 -74,82 -72,49 -74,52 -106,133 -48,121 -48,120 -70,108 -18,-10 -20,-22 -20,-155 v -144 l -59,-63 -59,-63 -10,40 c -6,22 -18,74 -27,115 l -16,75 -101,70 c -55,38 -106,79 -114,90 -7,11 -38,72 -68,137 l -54,116 50,32 c 60,36 39,49 171,-106 l 86,-101 62,-6 c 96,-11 94,-11 119,43 13,28 25,50 27,50 3,0 32,-21 66,-47 34,-25 67,-50 73,-54 6,-5 44,39 99,117 49,68 92,121 97,116 4,-4 30,-59 58,-122 27,-63 50,-109 50,-103 0,24 -70,367 -105,509 -235,977 -670,1835 -1306,2579 -132,154 -510,533 -659,659 -467,398 -934,716 -1495,1016 -285,153 -333,176 -314,154 z m 2036,-2658 c 60,-13 67,-18 180,-127 70,-66 160,-168 222,-248 104,-137 381,-543 381,-560 0,-5 -21,-26 -46,-47 -46,-37 -47,-37 -93,-25 -122,32 -150,43 -155,59 -3,9 -19,89 -36,177 -17,88 -34,162 -39,165 -4,3 -80,62 -168,132 l -160,127 -79,172 c -43,95 -80,176 -82,181 -5,10 0,10 75,-6 z M 9748,9345 c 52,-7 53,-8 144,-113 51,-59 93,-109 95,-111 2,-3 39,30 82,73 l 78,78 182,-75 c 143,-60 198,-88 256,-133 41,-31 80,-63 87,-71 9,-11 40,-173 34,-180 -1,-1 -76,-10 -167,-21 l -165,-19 -154,28 -154,28 -99,-104 c -78,-83 -103,-104 -120,-100 -12,2 -62,7 -110,10 l -88,7 -65,60 c -39,37 -64,68 -64,82 0,11 21,146 47,299 l 48,279 40,-6 c 22,-3 64,-8 93,-11 z"
       id="path5468"
       style="fill:#ffffff;fill-opacity:1" /><path
       d="m 5199,11619 c -35,-28 -68,-54 -72,-58 -4,-4 20,-42 53,-84 l 60,-77 h 53 c 28,1 126,18 216,38 l 164,37 15,54 15,54 -34,28 -34,28 -165,1 c -130,0 -170,3 -187,15 -19,14 -25,11 -84,-36 z"
       id="path5470"
       style="fill:#ffffff;fill-opacity:1" /><path
       d="m 6036,10756 -70,-62 33,-70 c 31,-66 32,-73 26,-151 l -7,-82 94,-3 c 76,-2 93,-6 91,-18 0,-8 -9,-53 -18,-100 l -17,-85 -109,-75 c -105,-72 -109,-76 -103,-105 9,-42 10,-43 54,-56 22,-7 40,-16 40,-21 0,-4 -39,-33 -86,-64 -80,-51 -86,-57 -71,-72 15,-14 37,-12 269,26 139,24 263,45 275,47 13,3 54,32 93,65 l 69,60 -65,90 c -46,63 -70,107 -81,146 -10,38 -41,96 -98,182 l -84,126 6,107 6,107 -78,36 c -43,20 -83,36 -89,36 -6,0 -42,-29 -80,-64 z"
       id="path5472"
       style="fill:#ffffff;fill-opacity:1" /><path
       d="m 5701,10410 c -31,-39 -36,-41 -79,-39 l -47,3 -36,-66 -36,-66 51,-19 c 42,-15 51,-22 51,-42 0,-25 -6,-29 -91,-50 -38,-10 -41,-14 -51,-58 -6,-27 -10,-49 -8,-51 1,-2 69,6 151,17 81,12 160,21 175,21 16,0 31,5 35,12 19,30 101,321 96,343 -3,19 -10,25 -32,25 -15,0 -54,3 -86,6 l -59,6 z"
       id="path5474"
       style="fill:#ffffff;fill-opacity:1" /><path
       d="m 7462,8662 c -42,-16 -44,-18 -38,-52 3,-19 6,-44 6,-56 0,-12 12,-38 26,-59 l 26,-39 -38,-31 -38,-32 12,-144 c 7,-78 14,-145 16,-147 3,-2 36,7 75,19 l 71,23 v 117 116 l -41,47 -41,46 21,18 c 20,16 21,23 15,105 -4,53 -11,87 -18,86 -6,0 -31,-8 -54,-17 z"
       id="path5476"
       style="fill:#ffffff;fill-opacity:1" /><path
       d="m 6,6110 c -18,-88 19,-594 64,-890 161,-1046 702,-2220 1460,-3170 112,-140 210,-255 210,-247 0,3 -43,108 -95,235 -52,127 -95,233 -95,236 0,2 33,43 74,91 l 75,87 -95,191 c -91,184 -103,202 -283,437 -172,223 -203,259 -352,396 L 805,3626 614,3991 C 510,4191 419,4378 412,4405 296,4889 213,5209 143,5450 60,5733 56,5753 35,5945 19,6095 11,6136 6,6110 Z"
       id="path5478"
       style="fill:#ffffff;fill-opacity:1" /></g></svg>
